<svg xmlns="http://www.w3.org/2000/svg" width="160" height="160" viewBox="0 0 160 160" role="img" aria-label="Farmer identity character">
  <defs><linearGradient id="green" x1="0" x2="1" y1="0" y2="1"><stop offset="0" stop-color="#58a85c"/><stop offset="1" stop-color="#1f5a36"/></linearGradient><linearGradient id="straw" x1="0" x2="1"><stop offset="0" stop-color="#ffe29a"/><stop offset="1" stop-color="#c4872f"/></linearGradient></defs>
  <circle cx="80" cy="82" r="64" fill="#10291e" opacity=".25"/>
  <path d="M28 62c34-31 70-31 104 0-8 13-96 13-104 0z" fill="url(#straw)" stroke="#7b4b17" stroke-width="5"/>
  <path d="M50 67c7-26 53-26 60 0" fill="none" stroke="#7b4b17" stroke-width="6" stroke-linecap="round"/>
  <path d="M34 88c12-26 80-26 92 0v34c0 16-18 27-46 27s-46-11-46-27z" fill="url(#green)" stroke="#d7ab54" stroke-width="5"/>
  <path d="M45 112c20 0 28-15 35-32 7 17 15 32 35 32" fill="none" stroke="#f3d787" stroke-width="7" stroke-linecap="round"/>
  <path d="M56 121h48" stroke="#f3d787" stroke-width="8" stroke-linecap="round"/>
  <text x="80" y="104" text-anchor="middle" font-family="sans-serif" font-size="24" font-weight="900" fill="#fff4c7">农民</text>
</svg>
