<?xml version="1.0" encoding="UTF-8"?>
<svg xmlns="http://www.w3.org/2000/svg" width="104" height="148" viewBox="0 0 104 148" role="img" aria-label="Dou Dizhu card front template — Ace of Hearts">
  <defs>
    <linearGradient id="paper" x1="0" y1="0" x2="1" y2="1">
      <stop offset="0" stop-color="#fffef9"/>
      <stop offset="0.42" stop-color="#fbf6ea"/>
      <stop offset="0.78" stop-color="#f0e2c4"/>
      <stop offset="1" stop-color="#e6d3a8"/>
    </linearGradient>
    <linearGradient id="paperSheen" x1="0" y1="0" x2="0" y2="1">
      <stop offset="0" stop-color="#ffffff" stop-opacity=".45"/>
      <stop offset="0.4" stop-color="#ffffff" stop-opacity="0"/>
      <stop offset="1" stop-color="#c9a056" stop-opacity=".06"/>
    </linearGradient>
    <filter id="shadow" x="-25%" y="-20%" width="150%" height="150%">
      <feDropShadow dx="0" dy="4" stdDeviation="3.5" flood-color="#2a1608" flood-opacity=".30"/>
    </filter>
  </defs>
  <rect x="3" y="3" width="98" height="142" rx="10" fill="url(#paper)" stroke="#c9a056" stroke-width="2" filter="url(#shadow)"/>
  <rect x="3" y="3" width="98" height="142" rx="10" fill="url(#paperSheen)" pointer-events="none"/>
  <rect x="8" y="8" width="88" height="132" rx="7" fill="none" stroke="#fff8e8" stroke-width="1.5" opacity=".95"/>
  <rect x="9.5" y="9.5" width="85" height="129" rx="6" fill="none" stroke="#d4b06a" stroke-width=".75" opacity=".35"/>
  <g fill="#c62828">
    <text x="14" y="28" font-family="Georgia, Times New Roman, serif" font-size="22" font-weight="700">A</text>
    <path d="M20 36 C15.2 30.2 8.8 35.6 13.5 42.2 C16.2 45.8 18.6 48.6 20 51.5 C21.4 48.6 23.8 45.8 26.5 42.2 C31.2 35.6 24.8 30.2 20 36Z"/>
  </g>
  <path d="M52 48 C36 30 18 52 34 74 C42 86 50 96 52 112 C54 96 62 86 70 74 C86 52 68 30 52 48Z" fill="#c62828"/>
  <g fill="#c62828" transform="rotate(180 84 118)">
    <text x="78" y="112" font-family="Georgia, Times New Roman, serif" font-size="22" font-weight="700">A</text>
    <path d="M84 120 C79.2 114.2 72.8 119.6 77.5 126.2 C80.2 129.8 82.6 132.6 84 135.5 C85.4 132.6 87.8 129.8 90.5 126.2 C95.2 119.6 88.8 114.2 84 120Z"/>
  </g>
</svg>
