<svg xmlns="http://www.w3.org/2000/svg" width="104" height="148" viewBox="0 0 104 148" role="img" aria-label="Dou Dizhu card front template">
  <defs>
    <linearGradient id="paper" x1="0" x2="1" y1="0" y2="1">
      <stop offset="0" stop-color="#fffdf4"/>
      <stop offset="0.55" stop-color="#f8f0da"/>
      <stop offset="1" stop-color="#ecd7a8"/>
    </linearGradient>
    <filter id="shadow" x="-20%" y="-20%" width="140%" height="140%"><feDropShadow dx="0" dy="5" stdDeviation="4" flood-color="#2b1604" flood-opacity=".28"/></filter>
  </defs>
  <rect x="4" y="4" width="96" height="140" rx="12" fill="url(#paper)" stroke="#c89b4f" stroke-width="2" filter="url(#shadow)"/>
  <rect x="9" y="9" width="86" height="130" rx="9" fill="none" stroke="#fff7df" stroke-width="2" opacity=".9"/>
  <text x="15" y="28" font-family="Georgia, 'Times New Roman', serif" font-size="22" font-weight="800" fill="#c72d2d">A</text>
  <path d="M20 37 C13 29 5 40 13 49 C17 54 20 58 20 63 C20 58 23 54 27 49 C35 40 27 29 20 37Z" fill="#c72d2d"/>
  <path d="M52 52 C37 34 20 59 35 78 C43 88 51 96 52 111 C53 96 61 88 69 78 C84 59 67 34 52 52Z" fill="#c72d2d" opacity=".92"/>
  <text x="89" y="120" font-family="Georgia, 'Times New Roman', serif" font-size="22" font-weight="800" fill="#c72d2d" transform="rotate(180 89 120)">A</text>
  <path d="M84 111 C77 103 69 114 77 123 C81 128 84 132 84 137 C84 132 87 128 91 123 C99 114 91 103 84 111Z" fill="#c72d2d" transform="rotate(180 84 124)"/>
</svg>
