<?xml version="1.0" encoding="UTF-8"?>
<svg xmlns="http://www.w3.org/2000/svg" width="104" height="148" viewBox="0 0 104 148" role="img" aria-label="Ace of Spades">
  <defs>
    <linearGradient id="paper" x1="0" y1="0" x2="1" y2="1">
      <stop offset="0" stop-color="#fffef9"/><stop offset="0.42" stop-color="#fbf6ea"/><stop offset="0.78" stop-color="#f0e2c4"/><stop offset="1" stop-color="#e6d3a8"/>
    </linearGradient>
    <filter id="shadow" x="-25%" y="-20%" width="150%" height="150%"><feDropShadow dx="0" dy="4" stdDeviation="3.5" flood-color="#2a1608" flood-opacity=".30"/></filter>
  </defs>
  <rect x="3" y="3" width="98" height="142" rx="10" fill="url(#paper)" stroke="#c9a056" stroke-width="2" filter="url(#shadow)"/>
  <rect x="8" y="8" width="88" height="132" rx="7" fill="none" stroke="#fff8e8" stroke-width="1.5"/>
  <g fill="#1a1f2e">
    <text x="14" y="28" font-family="Georgia, Times New Roman, serif" font-size="22" font-weight="700">A</text>
    <!-- corner spade -->
    <path d="M20 32 C14 38 11 42 11 46 C11 49.2 13.4 51.5 16.2 51.5 C18 51.5 19.2 50.6 20 49.2 C20.8 50.6 22 51.5 23.8 51.5 C26.6 51.5 29 49.2 29 46 C29 42 26 38 20 32 Z"/>
    <path d="M18.5 50.5 L21.5 50.5 L21.5 55 L23.2 57.5 L16.8 57.5 L18.5 55 Z"/>
  </g>
  <!-- center spade -->
  <g fill="#1a1f2e">
    <path d="M52 42 C38 56 30 66 30 76 C30 84 36 90 44 90 C48 90 50.5 87.5 52 84 C53.5 87.5 56 90 60 90 C68 90 74 84 74 76 C74 66 66 56 52 42 Z"/>
    <path d="M48 88 L56 88 L56 100 L60 106 L44 106 L48 100 Z"/>
  </g>
  <g fill="#1a1f2e" transform="rotate(180 84 118)">
    <text x="78" y="112" font-family="Georgia, Times New Roman, serif" font-size="22" font-weight="700">A</text>
    <path d="M84 118 C78 124 75 128 75 132 C75 135.2 77.4 137.5 80.2 137.5 C82 137.5 83.2 136.6 84 135.2 C84.8 136.6 86 137.5 87.8 137.5 C90.6 137.5 93 135.2 93 132 C93 128 90 124 84 118 Z"/>
    <path d="M82.5 136.5 L85.5 136.5 L85.5 141 L87.2 143.5 L80.8 143.5 L82.5 141 Z"/>
  </g>
</svg>
