<svg xmlns="http://www.w3.org/2000/svg" width="104" height="148" viewBox="0 0 104 148" role="img" aria-label="Ace of Clubs">
  <defs>
    <linearGradient id="paper" x1="0" y1="0" x2="1" y2="1">
      <stop offset="0" stop-color="#fffef9"/><stop offset="0.42" stop-color="#fbf6ea"/><stop offset="0.78" stop-color="#f0e2c4"/><stop offset="1" stop-color="#e6d3a8"/>
    </linearGradient>
    <filter id="shadow" x="-25%" y="-20%" width="150%" height="150%"><feDropShadow dx="0" dy="4" stdDeviation="3.5" flood-color="#2a1608" flood-opacity=".30"/></filter>
  </defs>
  <rect x="3" y="3" width="98" height="142" rx="10" fill="url(#paper)" stroke="#c9a056" stroke-width="2" filter="url(#shadow)"/>
  <rect x="8" y="8" width="88" height="132" rx="7" fill="none" stroke="#fff8e8" stroke-width="1.5"/>
  <g fill="#1a1f2e">
    <text x="14" y="28" font-family="Georgia, 'Times New Roman', serif" font-size="22" font-weight="700">A</text>
    <circle cx="20" cy="34" r="4"/><circle cx="15.5" cy="41" r="4"/><circle cx="24.5" cy="41" r="4"/><rect x="18.5" y="42" width="3" height="8" rx="1"/>
  </g>
  <g fill="#1a1f2e">
    <circle cx="52" cy="58" r="11"/><circle cx="40" cy="74" r="11"/><circle cx="64" cy="74" r="11"/>
    <rect x="49" y="76" width="6" height="22" rx="2"/>
  </g>
  <g fill="#1a1f2e" transform="rotate(180 84 118)">
    <text x="78" y="112" font-family="Georgia, 'Times New Roman', serif" font-size="22" font-weight="700">A</text>
    <circle cx="84" cy="118" r="4"/><circle cx="79.5" cy="125" r="4"/><circle cx="88.5" cy="125" r="4"/><rect x="82.5" y="126" width="3" height="8" rx="1"/>
  </g>
</svg>
