<svg xmlns="http://www.w3.org/2000/svg" width="104" height="148" viewBox="0 0 104 148" role="img" aria-label="Small Joker card v2">
  <defs>
    <linearGradient id="paperSJ" x1="0" y1="0" x2="0" y2="1">
      <stop offset="0" stop-color="#fffcf7"/>
      <stop offset="1" stop-color="#f0ebe0"/>
    </linearGradient>
    <linearGradient id="capeSJ" x1="0" y1="0" x2="0" y2="1">
      <stop offset="0" stop-color="#3f5475"/>
      <stop offset="1" stop-color="#1a2433"/>
    </linearGradient>
    <linearGradient id="hatGold" x1="0" y1="0" x2="0" y2="1">
      <stop offset="0" stop-color="#f5d76e"/>
      <stop offset="1" stop-color="#d4a82a"/>
    </linearGradient>
    <filter id="sjShadow" x="-22%" y="-16%" width="144%" height="144%">
      <feDropShadow dx="0" dy="4" stdDeviation="3.2" flood-color="#1a1008" flood-opacity=".28"/>
    </filter>
  </defs>
  <rect x="3.5" y="3.5" width="97" height="141" rx="10" fill="#e4dacb" filter="url(#sjShadow)"/>
  <rect x="4.5" y="4.5" width="95" height="139" rx="9.5" fill="url(#paperSJ)" stroke="#8a7355" stroke-width="1.25"/>
  <rect x="8" y="8" width="88" height="132" rx="7" fill="none" stroke="#d9cbb5" stroke-width="1"/>
  <rect x="10" y="12" width="7" height="124" rx="2.5" fill="#263247"/>
  <rect x="10" y="12" width="3" height="124" rx="1.5" fill="#5c7a9e" opacity=".35"/>
  <text x="22" y="28" font-family="Georgia, serif" font-size="12" font-weight="900" fill="#263247" letter-spacing="0.6">JOKER</text>
  <text x="22" y="46" font-family="system-ui, sans-serif" font-size="15" font-weight="900" fill="#1a2433">小王</text>
  <path d="M30 82c7-30 37-30 44 0l-7 32H37z" fill="url(#capeSJ)"/>
  <path d="M29 82c6-16 5-28 0-38 12 3 19 13 23 31 4-18 11-28 23-31-5 10-6 22 0 38"
        fill="url(#hatGold)" stroke="#263247" stroke-width="2.8" stroke-linejoin="round"/>
  <circle cx="29" cy="42" r="5" fill="#263247"/>
  <circle cx="75" cy="42" r="5" fill="#263247"/>
  <circle cx="52" cy="68" r="6" fill="#263247"/>
  <circle cx="29" cy="42" r="2.2" fill="#5c7a9e" opacity=".55"/>
  <circle cx="75" cy="42" r="2.2" fill="#5c7a9e" opacity=".55"/>
  <g transform="rotate(180 52 74)">
    <text x="22" y="28" font-family="Georgia, serif" font-size="12" font-weight="900" fill="#263247">JOKER</text>
    <text x="22" y="46" font-family="system-ui, sans-serif" font-size="15" font-weight="900" fill="#1a2433">小王</text>
  </g>
</svg>
