<svg xmlns="http://www.w3.org/2000/svg" width="104" height="148" viewBox="0 0 104 148" role="img" aria-label="Big Joker card v2">
  <defs>
    <linearGradient id="paperBJ" x1="0" y1="0" x2="0" y2="1">
      <stop offset="0" stop-color="#fffcf7"/>
      <stop offset="1" stop-color="#f0ebe0"/>
    </linearGradient>
    <linearGradient id="flameBJ" x1="0" y1="0" x2="0" y2="1">
      <stop offset="0" stop-color="#ff7a45"/>
      <stop offset=".45" stop-color="#d32222"/>
      <stop offset="1" stop-color="#6e0f18"/>
    </linearGradient>
    <radialGradient id="flameCore" cx="50%" cy="62%" r="42%">
      <stop offset="0" stop-color="#fff0a8"/>
      <stop offset="1" stop-color="#ffd76a" stop-opacity="0"/>
    </radialGradient>
    <filter id="bjShadow" x="-22%" y="-16%" width="144%" height="144%">
      <feDropShadow dx="0" dy="4" stdDeviation="3.2" flood-color="#1a1008" flood-opacity=".28"/>
    </filter>
  </defs>
  <rect x="3.5" y="3.5" width="97" height="141" rx="10" fill="#e4dacb" filter="url(#bjShadow)"/>
  <rect x="4.5" y="4.5" width="95" height="139" rx="9.5" fill="url(#paperBJ)" stroke="#8a7355" stroke-width="1.25"/>
  <rect x="8" y="8" width="88" height="132" rx="7" fill="none" stroke="#d9cbb5" stroke-width="1"/>
  <rect x="10" y="12" width="7" height="124" rx="2.5" fill="#c62828"/>
  <rect x="10" y="12" width="3" height="124" rx="1.5" fill="#ff8a65" opacity=".35"/>
  <text x="22" y="28" font-family="Georgia, serif" font-size="12" font-weight="900" fill="#c62828" letter-spacing="0.6">JOKER</text>
  <text x="22" y="46" font-family="system-ui, sans-serif" font-size="15" font-weight="900" fill="#b71c1c">大王</text>
  <path d="M52 28c14 22 28 30 26 52-2 20-16 33-26 40-10-7-24-20-26-40-2-22 12-30 26-52z" fill="url(#flameBJ)"/>
  <path d="M52 50c9 12 16 20 14 32-1.5 10-8 17-14 22-6-5-12.5-12-14-22-2-12 5-20 14-32z" fill="#ffd76a" opacity=".95"/>
  <ellipse cx="52" cy="66" rx="8" ry="10" fill="url(#flameCore)"/>
  <path d="M40 78c4-12 4-22 0-32 9 3 15 11 18 26 3-15 9-23 18-26-4 10-4 20 0 32"
        fill="none" stroke="#4a0c12" stroke-width="3.4" stroke-linejoin="round" opacity=".5"/>
  <g transform="rotate(180 52 74)">
    <text x="22" y="28" font-family="Georgia, serif" font-size="12" font-weight="900" fill="#c62828">JOKER</text>
    <text x="22" y="46" font-family="system-ui, sans-serif" font-size="15" font-weight="900" fill="#b71c1c">大王</text>
  </g>
</svg>
