<svg xmlns="http://www.w3.org/2000/svg" width="104" height="148" viewBox="0 0 104 148" role="img" aria-label="Dou Dizhu card back v2">
  <defs>
    <linearGradient id="backField" x1="0" y1="0" x2="1" y2="1">
      <stop offset="0" stop-color="#6e1a1f"/>
      <stop offset=".5" stop-color="#3d1018"/>
      <stop offset="1" stop-color="#1c0c14"/>
    </linearGradient>
    <pattern id="lattice" width="14" height="14" patternUnits="userSpaceOnUse" patternTransform="rotate(45 7 7)">
      <rect width="14" height="14" fill="none"/>
      <path d="M0 7 H14 M7 0 V14" stroke="#e8c56a" stroke-width=".9" opacity=".28"/>
      <circle cx="7" cy="7" r="1.4" fill="#e8c56a" opacity=".22"/>
    </pattern>
    <filter id="backShadow" x="-20%" y="-15%" width="140%" height="140%">
      <feDropShadow dx="0" dy="4" stdDeviation="3" flood-color="#12080a" flood-opacity=".35"/>
    </filter>
  </defs>
  <rect x="3.5" y="3.5" width="97" height="141" rx="10" fill="#d9c48a" filter="url(#backShadow)"/>
  <rect x="5" y="5" width="94" height="138" rx="9" fill="url(#backField)" stroke="#c9a24a" stroke-width="1.5"/>
  <rect x="11" y="11" width="82" height="126" rx="7" fill="url(#lattice)" stroke="#e8c56a" stroke-width="1.5" opacity=".95"/>
  <rect x="18" y="18" width="68" height="112" rx="5" fill="none" stroke="#f0d78a" stroke-width="1" opacity=".35"/>
  <!-- center medallion -->
  <circle cx="52" cy="74" r="22" fill="#140910" stroke="#e8c56a" stroke-width="2.25"/>
  <circle cx="52" cy="74" r="16" fill="none" stroke="#f0d78a" stroke-width="1" opacity=".55"/>
  <path d="M52 58 L58 70 L71 72 L61 81 L64 94 L52 87 L40 94 L43 81 L33 72 L46 70 Z"
        fill="#f3df9a" stroke="#c9a24a" stroke-width=".6"/>
</svg>
