<svg xmlns="http://www.w3.org/2000/svg" width="104" height="148" viewBox="0 0 104 148" role="img" aria-label="Big Joker card">
  <defs><linearGradient id="paper" x1="0" x2="1" y1="0" y2="1"><stop offset="0" stop-color="#fffdf4"/><stop offset="1" stop-color="#ead8ae"/></linearGradient><linearGradient id="flame" x1="0" x2="1" y1="0" y2="1"><stop offset="0" stop-color="#e23b2f"/><stop offset="1" stop-color="#8d131c"/></linearGradient></defs>
  <rect x="4" y="4" width="96" height="140" rx="12" fill="url(#paper)" stroke="#c89b4f" stroke-width="2"/>
  <text x="15" y="31" font-family="Georgia,serif" font-size="15" font-weight="900" fill="#bd1b23">JOKER</text>
  <text x="17" y="50" font-family="sans-serif" font-size="13" font-weight="900" fill="#bd1b23">大王</text>
  <path d="M52 27c14 22 28 30 25 53-2 20-17 34-25 41-8-7-23-21-25-41-3-23 11-31 25-53z" fill="url(#flame)"/>
  <path d="M52 52c9 12 16 19 14 32-1 10-8 17-14 23-6-6-13-13-14-23-2-13 5-20 14-32z" fill="#ffd86d" opacity=".9"/>
  <path d="M29 77c6-16 5-28 0-38 12 3 19 13 23 31 4-18 11-28 23-31-5 10-6 22 0 38" fill="none" stroke="#4b0b13" stroke-width="4" stroke-linejoin="round" opacity=".65"/>
  <text x="88" y="121" font-family="sans-serif" font-size="13" font-weight="900" fill="#bd1b23" transform="rotate(180 88 121)">大王</text>
</svg>
