<svg xmlns="http://www.w3.org/2000/svg" width="390" height="844" viewBox="0 0 390 844" role="img" aria-label="LRM-314 mobile play state 390x844">
  <defs>
    <linearGradient id="room" x1="0" y1="0" x2="1" y2="1">
      <stop offset="0%" stop-color="#33221a"/>
      <stop offset="100%" stop-color="#241612"/>
    </linearGradient>
    <pattern id="feltTex" width="48" height="48" patternUnits="userSpaceOnUse">
      <rect width="48" height="48" fill="#1b4a37"/>
      <path d="M0 24h48M24 0v48" stroke="rgba(255,255,255,0.04)" stroke-width="0.5"/>
    </pattern>
    <radialGradient id="felt" cx="50%" cy="35%" r="75%">
      <stop offset="0%" stop-color="#2a6349"/>
      <stop offset="100%" stop-color="#0b2218"/>
    </radialGradient>
    <pattern id="wood" width="24" height="24" patternUnits="userSpaceOnUse">
      <rect width="24" height="24" fill="#6b4424"/>
      <path d="M4 0 Q6 8 4 16 T4 24" stroke="rgba(0,0,0,0.15)" stroke-width="0.5" fill="none"/>
    </pattern>
  </defs>
  <rect width="390" height="844" fill="url(#room)"/>
  <ellipse cx="195" cy="60" rx="120" ry="40" fill="rgba(255,200,120,0.08)"/>
  <text x="16" y="28" fill="#e8bc3a" font-size="11" font-weight="700" font-family="Segoe UI">LRM-314  390844</text>
  <rect x="12" y="40" width="366" height="36" rx="6" fill="rgba(11,34,24,0.9)"/>
  <text x="24" y="62" fill="#fff3c4" font-size="11" font-family="Segoe UI">0;</text>
  <!-- v2 table with texture -->
  <ellipse cx="195" cy="380" rx="168" ry="200" fill="url(#feltTex)" stroke="url(#wood)" stroke-width="8"/>
  <ellipse cx="195" cy="380" rx="168" ry="200" fill="url(#felt)" opacity="0.75"/>
  <rect x="120" y="180" width="150" height="44" rx="8" fill="rgba(0,0,0,0.25)"/>
  <text x="155" y="207" fill="#fff3c4" font-size="10" font-family="Segoe UI">
</text>
  <rect x="80" y="320" width="230" height="70" rx="8" fill="rgba(0,0,0,0.15)"/>
  <!-- mini hand -->
  <g transform="translate(48,620)">
    <rect width="36" height="52" rx="5" fill="#fbfbf6" stroke="#8a7355"/>
    <rect x="20" y="-4" width="36" height="52" rx="5" fill="#fbfbf6" stroke="#f6c65b" stroke-width="2"/>
    <rect x="40" y="0" width="36" height="52" rx="5" fill="#fbfbf6" stroke="#8a7355"/>
    <rect x="60" y="0" width="36" height="52" rx="5" fill="#fbfbf6" stroke="#8a7355"/>
    <rect x="80" y="0" width="36" height="52" rx="5" fill="#fbfbf6" stroke="#8a7355"/>
    <rect x="100" y="0" width="36" height="52" rx="5" fill="#fbfbf6" stroke="#8a7355"/>
    <rect x="120" y="0" width="36" height="52" rx="5" fill="#fbfbf6" stroke="#8a7355"/>
    <rect x="140" y="0" width="36" height="52" rx="5" fill="#fbfbf6" stroke="#8a7355"/>
    <rect x="160" y="0" width="36" height="52" rx="5" fill="#fbfbf6" stroke="#8a7355"/>
    <rect x="180" y="0" width="36" height="52" rx="5" fill="#fbfbf6" stroke="#8a7355"/>
    <rect x="200" y="0" width="36" height="52" rx="5" fill="#fbfbf6" stroke="#8a7355"/>
    <rect x="220" y="0" width="36" height="52" rx="5" fill="#fbfbf6" stroke="#8a7355"/>
  </g>
  <rect x="60" y="720" width="270" height="44" rx="10" fill="#e8bc3a"/>
  <text x="195" y="748" text-anchor="middle" fill="#2c1d00" font-size="13" font-weight="700" font-family="Segoe UI">L</text>
  <text x="16" y="820" fill="#7ef0a8" font-size="10" font-family="Segoe UI">felt+rail+room v2  rail 8px mobile  no scroll</text>
</svg>
